<?xml version="1.0" encoding="UTF-8" standalone="no"?>
<svg
   id="visual"
   viewBox="0 0 960 540"
   width="960"
   height="540"
   version="1.1"
   sodipodi:docname="angsty-fond2.svg"
   inkscape:version="1.2.2 (732a01da63, 2022-12-09)"
   xmlns:inkscape="http://www.inkscape.org/namespaces/inkscape"
   xmlns:sodipodi="http://sodipodi.sourceforge.net/DTD/sodipodi-0.dtd"
   xmlns="http://www.w3.org/2000/svg"
   xmlns:svg="http://www.w3.org/2000/svg">
  <defs
     id="defs10865" />
  <sodipodi:namedview
     id="namedview10863"
     pagecolor="#ffffff"
     bordercolor="#000000"
     borderopacity="0.25"
     inkscape:showpageshadow="2"
     inkscape:pageopacity="0.0"
     inkscape:pagecheckerboard="0"
     inkscape:deskcolor="#d1d1d1"
     showgrid="false"
     inkscape:zoom="1.3322917"
     inkscape:cx="601.97029"
     inkscape:cy="270.2111"
     inkscape:window-width="1920"
     inkscape:window-height="1009"
     inkscape:window-x="-8"
     inkscape:window-y="-8"
     inkscape:window-maximized="1"
     inkscape:current-layer="visual" />
  <rect
     x="0"
     y="0"
     width="960"
     height="540"
     fill="#290b00"
     id="rect10840" />
  <g
     fill="#f7770f"
     id="g10860"
     transform="translate(138.85848,6.7552776)">
    <path
       d="M 0,-106.7 23.9,-33 h 77.5 L 38.7,12.6 62.7,86.3 0,40.7 -62.7,86.3 -38.7,12.6 -101.4,-33 h 77.5 z"
       transform="translate(240,98)"
       id="path10842" />
    <path
       d="m 0,-34 7.6,23.5 H 32.3 L 12.3,4 20,27.5 0,13 -20,27.5 -12.3,4 l -20,-14.5 h 24.7 z"
       transform="translate(831,254)"
       id="path10844" />
    <path
       d="m 0,-69.8 15.7,48.2 H 66.4 L 25.4,8.2 41.1,56.5 0,26.7 -41.1,56.5 -25.4,8.2 l -41,-29.8 h 50.7 z"
       transform="translate(259,428)"
       id="path10846" />
    <path
       d="m 0,-36.8 8.3,25.4 H 35 L 13.4,4.3 21.6,29.8 0,14.1 -21.6,29.8 -13.4,4.3 -35,-11.4 h 26.7 z"
       transform="translate(683,7)"
       id="path10848" />
    <path
       d="m 0,-58.5 13.1,40.4 H 55.7 L 21.3,6.9 34.4,47.3 0,22.4 -34.4,47.3 -21.3,6.9 l -34.4,-25 h 42.6 z"
       transform="translate(476,96)"
       id="path10850" />
    <path
       d="m 0,-69.8 15.7,48.2 H 66.4 L 25.4,8.2 41.1,56.5 0,26.7 -41.1,56.5 -25.4,8.2 l -41,-29.8 h 50.7 z"
       transform="translate(657,402)"
       id="path10852" />
    <path
       d="m 0,-73.6 16.5,50.9 H 70 L 26.7,8.7 43.3,59.6 0,28.1 -43.3,59.6 -26.7,8.7 -70,-22.7 h 53.5 z"
       transform="translate(2,512)"
       id="path10854" />
    <path
       d="m 0,-66.1 14.8,45.7 h 48 L 24,7.8 38.8,53.5 0,25.2 -38.8,53.5 -24,7.8 -62.8,-20.4 h 48 z"
       transform="translate(4,243)"
       id="path10856" />
    <path
       d="m 0,-84.9 19.1,58.7 H 80.8 L 30.9,10 49.9,68.7 0,32.4 -49.9,68.7 -30.9,10 -80.8,-26.2 h 61.7 z"
       transform="translate(958,2)"
       id="path10858" />
  </g>
</svg>
