<svg id="visual" viewBox="0 0 960 200" width="960" height="200" xmlns="http://www.w3.org/2000/svg" xmlns:xlink="http://www.w3.org/1999/xlink" version="1.1"><rect x="0" y="0" width="960" height="200" fill="#6963c0"></rect><path d="M0 114L8.5 112.2C17 110.3 34 106.7 50.8 106.3C67.7 106 84.3 109 101.2 113.2C118 117.3 135 122.7 151.8 122.3C168.7 122 185.3 116 202.2 112C219 108 236 106 252.8 106.3C269.7 106.7 286.3 109.3 303.2 113.7C320 118 337 124 353.8 125.8C370.7 127.7 387.3 125.3 404.2 125.7C421 126 438 129 454.8 125.7C471.7 122.3 488.3 112.7 505.2 112.2C522 111.7 539 120.3 555.8 120.7C572.7 121 589.3 113 606.2 111.7C623 110.3 640 115.7 656.8 117.8C673.7 120 690.3 119 707.2 121.3C724 123.7 741 129.3 757.8 128.5C774.7 127.7 791.3 120.3 808.2 118.8C825 117.3 842 121.7 858.8 121.2C875.7 120.7 892.3 115.3 909.2 114.7C926 114 943 118 951.5 120L960 122L960 201L951.5 201C943 201 926 201 909.2 201C892.3 201 875.7 201 858.8 201C842 201 825 201 808.2 201C791.3 201 774.7 201 757.8 201C741 201 724 201 707.2 201C690.3 201 673.7 201 656.8 201C640 201 623 201 606.2 201C589.3 201 572.7 201 555.8 201C539 201 522 201 505.2 201C488.3 201 471.7 201 454.8 201C438 201 421 201 404.2 201C387.3 201 370.7 201 353.8 201C337 201 320 201 303.2 201C286.3 201 269.7 201 252.8 201C236 201 219 201 202.2 201C185.3 201 168.7 201 151.8 201C135 201 118 201 101.2 201C84.3 201 67.7 201 50.8 201C34 201 17 201 8.5 201L0 201Z" fill="#63a3bf"></path><path d="M0 126L8.5 124.3C17 122.7 34 119.3 50.8 119.3C67.7 119.3 84.3 122.7 101.2 123.7C118 124.7 135 123.3 151.8 122.3C168.7 121.3 185.3 120.7 202.2 122.5C219 124.3 236 128.7 252.8 131.2C269.7 133.7 286.3 134.3 303.2 131.8C320 129.3 337 123.7 353.8 124C370.7 124.3 387.3 130.7 404.2 131.2C421 131.7 438 126.3 454.8 124.3C471.7 122.3 488.3 123.7 505.2 127.2C522 130.7 539 136.3 555.8 136.2C572.7 136 589.3 130 606.2 126.3C623 122.7 640 121.3 656.8 120.7C673.7 120 690.3 120 707.2 122.7C724 125.3 741 130.7 757.8 129.5C774.7 128.3 791.3 120.7 808.2 118.2C825 115.7 842 118.3 858.8 121.3C875.7 124.3 892.3 127.7 909.2 130.8C926 134 943 137 951.5 138.5L960 140L960 201L951.5 201C943 201 926 201 909.2 201C892.3 201 875.7 201 858.8 201C842 201 825 201 808.2 201C791.3 201 774.7 201 757.8 201C741 201 724 201 707.2 201C690.3 201 673.7 201 656.8 201C640 201 623 201 606.2 201C589.3 201 572.7 201 555.8 201C539 201 522 201 505.2 201C488.3 201 471.7 201 454.8 201C438 201 421 201 404.2 201C387.3 201 370.7 201 353.8 201C337 201 320 201 303.2 201C286.3 201 269.7 201 252.8 201C236 201 219 201 202.2 201C185.3 201 168.7 201 151.8 201C135 201 118 201 101.2 201C84.3 201 67.7 201 50.8 201C34 201 17 201 8.5 201L0 201Z" fill="#599cd2"></path><path d="M0 146L8.5 145.3C17 144.7 34 143.3 50.8 141.2C67.7 139 84.3 136 101.2 136.2C118 136.3 135 139.7 151.8 142.5C168.7 145.3 185.3 147.7 202.2 148.3C219 149 236 148 252.8 147C269.7 146 286.3 145 303.2 145.7C320 146.3 337 148.7 353.8 147.8C370.7 147 387.3 143 404.2 138.8C421 134.7 438 130.3 454.8 130.7C471.7 131 488.3 136 505.2 139C522 142 539 143 555.8 142.3C572.7 141.7 589.3 139.3 606.2 140.5C623 141.7 640 146.3 656.8 145.8C673.7 145.3 690.3 139.7 707.2 136.5C724 133.3 741 132.7 757.8 135.7C774.7 138.7 791.3 145.3 808.2 147.2C825 149 842 146 858.8 146C875.7 146 892.3 149 909.2 149.3C926 149.7 943 147.3 951.5 146.2L960 145L960 201L951.5 201C943 201 926 201 909.2 201C892.3 201 875.7 201 858.8 201C842 201 825 201 808.2 201C791.3 201 774.7 201 757.8 201C741 201 724 201 707.2 201C690.3 201 673.7 201 656.8 201C640 201 623 201 606.2 201C589.3 201 572.7 201 555.8 201C539 201 522 201 505.2 201C488.3 201 471.7 201 454.8 201C438 201 421 201 404.2 201C387.3 201 370.7 201 353.8 201C337 201 320 201 303.2 201C286.3 201 269.7 201 252.8 201C236 201 219 201 202.2 201C185.3 201 168.7 201 151.8 201C135 201 118 201 101.2 201C84.3 201 67.7 201 50.8 201C34 201 17 201 8.5 201L0 201Z" fill="#7091df"></path><path d="M0 151L8.5 152.5C17 154 34 157 50.8 154.7C67.7 152.3 84.3 144.7 101.2 143C118 141.3 135 145.7 151.8 149.7C168.7 153.7 185.3 157.3 202.2 158.2C219 159 236 157 252.8 154C269.7 151 286.3 147 303.2 148.2C320 149.3 337 155.7 353.8 156.2C370.7 156.7 387.3 151.3 404.2 148.7C421 146 438 146 454.8 147.3C471.7 148.7 488.3 151.3 505.2 150C522 148.7 539 143.3 555.8 144C572.7 144.7 589.3 151.3 606.2 151.8C623 152.3 640 146.7 656.8 146.5C673.7 146.3 690.3 151.7 707.2 151.5C724 151.3 741 145.7 757.8 143.5C774.7 141.3 791.3 142.7 808.2 144.5C825 146.3 842 148.7 858.8 149.8C875.7 151 892.3 151 909.2 152.2C926 153.3 943 155.7 951.5 156.8L960 158L960 201L951.5 201C943 201 926 201 909.2 201C892.3 201 875.7 201 858.8 201C842 201 825 201 808.2 201C791.3 201 774.7 201 757.8 201C741 201 724 201 707.2 201C690.3 201 673.7 201 656.8 201C640 201 623 201 606.2 201C589.3 201 572.7 201 555.8 201C539 201 522 201 505.2 201C488.3 201 471.7 201 454.8 201C438 201 421 201 404.2 201C387.3 201 370.7 201 353.8 201C337 201 320 201 303.2 201C286.3 201 269.7 201 252.8 201C236 201 219 201 202.2 201C185.3 201 168.7 201 151.8 201C135 201 118 201 101.2 201C84.3 201 67.7 201 50.8 201C34 201 17 201 8.5 201L0 201Z" fill="#9c7edd"></path><path d="M0 151L8.5 152.2C17 153.3 34 155.7 50.8 155.7C67.7 155.7 84.3 153.3 101.2 154.8C118 156.3 135 161.7 151.8 162.7C168.7 163.7 185.3 160.3 202.2 159.7C219 159 236 161 252.8 160.3C269.7 159.7 286.3 156.3 303.2 156.2C320 156 337 159 353.8 160.3C370.7 161.7 387.3 161.3 404.2 162.3C421 163.3 438 165.7 454.8 164.2C471.7 162.7 488.3 157.3 505.2 156.8C522 156.3 539 160.7 555.8 160.5C572.7 160.3 589.3 155.7 606.2 155.3C623 155 640 159 656.8 160.8C673.7 162.7 690.3 162.3 707.2 162.3C724 162.3 741 162.7 757.8 164C774.7 165.3 791.3 167.7 808.2 166.7C825 165.7 842 161.3 858.8 158.3C875.7 155.3 892.3 153.7 909.2 154C926 154.3 943 156.7 951.5 157.8L960 159L960 201L951.5 201C943 201 926 201 909.2 201C892.3 201 875.7 201 858.8 201C842 201 825 201 808.2 201C791.3 201 774.7 201 757.8 201C741 201 724 201 707.2 201C690.3 201 673.7 201 656.8 201C640 201 623 201 606.2 201C589.3 201 572.7 201 555.8 201C539 201 522 201 505.2 201C488.3 201 471.7 201 454.8 201C438 201 421 201 404.2 201C387.3 201 370.7 201 353.8 201C337 201 320 201 303.2 201C286.3 201 269.7 201 252.8 201C236 201 219 201 202.2 201C185.3 201 168.7 201 151.8 201C135 201 118 201 101.2 201C84.3 201 67.7 201 50.8 201C34 201 17 201 8.5 201L0 201Z" fill="#ca62c7"></path><path d="M0 173L8.5 173.2C17 173.3 34 173.7 50.8 175.2C67.7 176.7 84.3 179.3 101.2 178.5C118 177.7 135 173.3 151.8 170.8C168.7 168.3 185.3 167.7 202.2 166.8C219 166 236 165 252.8 166C269.7 167 286.3 170 303.2 170.7C320 171.3 337 169.7 353.8 170.3C370.7 171 387.3 174 404.2 174.7C421 175.3 438 173.7 454.8 174.3C471.7 175 488.3 178 505.2 177.7C522 177.3 539 173.7 555.8 172.7C572.7 171.7 589.3 173.3 606.2 174.3C623 175.3 640 175.7 656.8 175.7C673.7 175.7 690.3 175.3 707.2 175.8C724 176.3 741 177.7 757.8 178.3C774.7 179 791.3 179 808.2 178.8C825 178.7 842 178.3 858.8 178.3C875.7 178.3 892.3 178.7 909.2 177.5C926 176.3 943 173.7 951.5 172.3L960 171L960 201L951.5 201C943 201 926 201 909.2 201C892.3 201 875.7 201 858.8 201C842 201 825 201 808.2 201C791.3 201 774.7 201 757.8 201C741 201 724 201 707.2 201C690.3 201 673.7 201 656.8 201C640 201 623 201 606.2 201C589.3 201 572.7 201 555.8 201C539 201 522 201 505.2 201C488.3 201 471.7 201 454.8 201C438 201 421 201 404.2 201C387.3 201 370.7 201 353.8 201C337 201 320 201 303.2 201C286.3 201 269.7 201 252.8 201C236 201 219 201 202.2 201C185.3 201 168.7 201 151.8 201C135 201 118 201 101.2 201C84.3 201 67.7 201 50.8 201C34 201 17 201 8.5 201L0 201Z" fill="#ee3c9e"></path><path d="M0 177L8.5 178.5C17 180 34 183 50.8 183.8C67.7 184.7 84.3 183.3 101.2 182.7C118 182 135 182 151.8 183.2C168.7 184.3 185.3 186.7 202.2 185.8C219 185 236 181 252.8 181C269.7 181 286.3 185 303.2 187C320 189 337 189 353.8 189.2C370.7 189.3 387.3 189.7 404.2 189.7C421 189.7 438 189.3 454.8 188.8C471.7 188.3 488.3 187.7 505.2 187.3C522 187 539 187 555.8 187.5C572.7 188 589.3 189 606.2 189.5C623 190 640 190 656.8 188.8C673.7 187.7 690.3 185.3 707.2 183.7C724 182 741 181 757.8 182.2C774.7 183.3 791.3 186.7 808.2 188.3C825 190 842 190 858.8 187.8C875.7 185.7 892.3 181.3 909.2 180.5C926 179.7 943 182.3 951.5 183.7L960 185L960 201L951.5 201C943 201 926 201 909.2 201C892.3 201 875.7 201 858.8 201C842 201 825 201 808.2 201C791.3 201 774.7 201 757.8 201C741 201 724 201 707.2 201C690.3 201 673.7 201 656.8 201C640 201 623 201 606.2 201C589.3 201 572.7 201 555.8 201C539 201 522 201 505.2 201C488.3 201 471.7 201 454.8 201C438 201 421 201 404.2 201C387.3 201 370.7 201 353.8 201C337 201 320 201 303.2 201C286.3 201 269.7 201 252.8 201C236 201 219 201 202.2 201C185.3 201 168.7 201 151.8 201C135 201 118 201 101.2 201C84.3 201 67.7 201 50.8 201C34 201 17 201 8.5 201L0 201Z" fill="#ff0066"></path></svg>