<?xml version="1.0" encoding="UTF-8" standalone="no"?>
<svg
   id="visual"
   viewBox="0 0 992.80688 540"
   width="992.80688"
   height="540"
   version="1.1"
   sodipodi:docname="snorunt-fond.svg"
   inkscape:version="1.2.2 (732a01da63, 2022-12-09)"
   xmlns:inkscape="http://www.inkscape.org/namespaces/inkscape"
   xmlns:sodipodi="http://sodipodi.sourceforge.net/DTD/sodipodi-0.dtd"
   xmlns="http://www.w3.org/2000/svg"
   xmlns:svg="http://www.w3.org/2000/svg">
  <defs
     id="defs58">
    <clipPath
       clipPathUnits="userSpaceOnUse"
       id="clipPath8250">
      <rect
         style="fill:#ffffff;fill-opacity:1"
         id="rect8252"
         width="1054.1047"
         height="646.91162"
         x="407.19312"
         y="-27.365131" />
    </clipPath>
  </defs>
  <sodipodi:namedview
     id="namedview56"
     pagecolor="#ffffff"
     bordercolor="#000000"
     borderopacity="0.25"
     inkscape:showpageshadow="2"
     inkscape:pageopacity="0.0"
     inkscape:pagecheckerboard="0"
     inkscape:deskcolor="#d1d1d1"
     showgrid="false"
     showguides="false"
     inkscape:zoom="0.91357143"
     inkscape:cx="422.51759"
     inkscape:cy="270.36747"
     inkscape:window-width="1920"
     inkscape:window-height="1009"
     inkscape:window-x="-8"
     inkscape:window-y="-8"
     inkscape:window-maximized="1"
     inkscape:current-layer="visual" />
  <g
     id="g3777"
     transform="translate(-407.19312)"
     clip-path="url(#clipPath8250)">
    <path
       d="m 1357,540 -14,-77 -14,-77 v -77 l -14,-78 42,-77 -14,-77 -28,-77 h 85 v 77 77 77 78 77 77 77 z"
       fill="#2ffdc0"
       id="path31"
       style="fill:#1ce4b2;fill-opacity:1" />
    <path
       d="m 1063,540 28,-77 -154,-77 196,-77 -140,-78 -14,-77 -28,-77 84,-77 h 281 l 28,77 14,77 -42,77 14,78 v 77 l 14,77 14,77 z"
       fill="#1ce4b2"
       id="path33" />
    <path
       d="M 951,540 979,463 825,386 1007,309 839,231 825,154 867,77 895,0 h 141 l -84,77 28,77 14,77 140,78 -196,77 154,77 -28,77 z"
       fill="#08cca3"
       id="path35"
       style="fill:#1ce4b2;fill-opacity:1" />
    <path
       d="M 839,540 909,463 755,386 909,309 755,231 741,154 755,77 783,0 h 113 l -28,77 -42,77 14,77 168,78 -182,77 154,77 -28,77 z"
       fill="#00b494"
       id="path37" />
    <path
       d="M 769,540 853,463 699,386 867,309 685,231 671,154 685,77 713,0 h 71 l -28,77 -14,77 14,77 154,78 -154,77 154,77 -70,77 z"
       fill="#009d84"
       id="path39" />
    <path
       d="M 713,540 797,463 643,386 811,309 643,231 629,154 643,77 671,0 h 43 l -28,77 -14,77 14,77 182,78 -168,77 154,77 -84,77 z"
       fill="#008673"
       id="path41" />
    <path
       d="M 643,540 755,463 601,386 741,309 601,231 587,154 601,77 615,0 h 57 l -28,77 -14,77 14,77 168,78 -168,77 154,77 -84,77 z"
       fill="#037063"
       id="path43" />
    <path
       d="m 531,540 98,-77 -112,-77 98,-77 -98,-78 -42,-77 28,-77 V 0 h 113 l -14,77 -14,77 14,77 140,78 -140,77 154,77 -112,77 z"
       fill="#085b51"
       id="path45" />
    <path
       d="m 335,540 28,-77 -84,-77 14,-77 42,-78 -84,-77 42,-77 28,-77 h 183 v 77 l -28,77 42,77 98,78 -98,77 112,77 -98,77 z"
       fill="#0c4640"
       id="path47"
       style="fill:#124642;fill-opacity:1" />
    <path
       d="m 139,540 14,-77 -28,-77 28,-77 -28,-78 V 154 L 167,77 153,0 h 169 l -28,77 -42,77 84,77 -42,78 -14,77 84,77 -28,77 z"
       fill="#0d322f"
       id="path49" />
    <path
       d="M 83,540 97,463 55,386 69,309 55,231 69,154 83,77 97,0 h 57 l 14,77 -42,77 v 77 l 28,78 -28,77 28,77 -14,77 z"
       fill="#0c201e"
       id="path51" />
    <path
       d="M 0,540 V 463 386 309 231 154 77 0 h 98 l -14,77 -14,77 -14,77 14,78 -14,77 42,77 -14,77 z"
       fill="#000c0b"
       id="path53" />
  </g>
</svg>
