<svg id="visual" viewBox="0 0 960 540" width="960" height="540" xmlns="http://www.w3.org/2000/svg" xmlns:xlink="http://www.w3.org/1999/xlink" version="1.1"><rect x="0" y="0" width="960" height="540" fill="#140021"/><path d="M373 0L554 0L554 77L482 77L482 154L359 154L359 231L429 231L429 309L435 309L435 386L370 386L370 463L495 463L495 540L0 540L0 463L0 463L0 386L0 386L0 309L0 309L0 231L0 231L0 154L0 154L0 77L0 77L0 0L0 0Z" fill="#9900ff"/><path d="M284 0L266 0L266 77L351 77L351 154L389 154L389 231L407 231L407 309L344 309L344 386L344 386L344 463L359 463L359 540L0 540L0 463L0 463L0 386L0 386L0 309L0 309L0 231L0 231L0 154L0 154L0 77L0 77L0 0L0 0Z" fill="#7700c6"/><path d="M102 0L135 0L135 77L232 77L232 154L230 154L230 231L244 231L244 309L233 309L233 386L105 386L105 463L88 463L88 540L0 540L0 463L0 463L0 386L0 386L0 309L0 309L0 231L0 231L0 154L0 154L0 77L0 77L0 0L0 0Z" fill="#560090"/></svg>