<?xml version="1.0" encoding="UTF-8" standalone="no"?>
<svg
   id="visual"
   viewBox="0 0 900 344.06393"
   width="900"
   height="344.06393"
   version="1.1"
   sodipodi:docname="layer.svg"
   inkscape:version="1.2.2 (732a01da63, 2022-12-09)"
   xmlns:inkscape="http://www.inkscape.org/namespaces/inkscape"
   xmlns:sodipodi="http://sodipodi.sourceforge.net/DTD/sodipodi-0.dtd"
   xmlns="http://www.w3.org/2000/svg"
   xmlns:svg="http://www.w3.org/2000/svg">
  <defs
     id="defs21" />
  <sodipodi:namedview
     id="namedview19"
     pagecolor="#ffffff"
     bordercolor="#000000"
     borderopacity="0.25"
     inkscape:showpageshadow="2"
     inkscape:pageopacity="0.0"
     inkscape:pagecheckerboard="0"
     inkscape:deskcolor="#d1d1d1"
     showgrid="false"
     inkscape:zoom="0.48849294"
     inkscape:cx="677.59424"
     inkscape:cy="283.52508"
     inkscape:window-width="958"
     inkscape:window-height="1000"
     inkscape:window-x="2873"
     inkscape:window-y="0"
     inkscape:window-maximized="0"
     inkscape:current-layer="visual" />
  <rect
     x="0"
     y="0"
     width="900"
     height="343.06393"
     fill="#6963c0"
     id="rect2"
     style="stroke-width:0.756157" />
  <path
     d="m 0,100.06393 21.5,6.8 c 21.5,6.9 64.5,20.5 107.3,15 42.9,-5.5 85.5,-30.099996 128.4,-33.999996 42.8,-3.8 85.8,13.199996 128.6,26.499996 42.9,13.4 85.5,23 128.4,13.2 42.8,-9.8 85.8,-39.199996 128.6,-53.299996 42.9,-14.2 85.5,-13.2 128.4,-15.9 42.8,-2.6 85.8,-9 107.3,-12.1 l 21.5,-3.2 V 344.06393 h -21.5 c -21.5,0 -64.5,0 -107.3,0 -42.9,0 -85.5,0 -128.4,0 -42.8,0 -85.8,0 -128.6,0 -42.9,0 -85.5,0 -128.4,0 -42.8,0 -85.8,0 -128.6,0 -42.9,0 -85.5,0 -128.4,0 -42.8,0 -85.8,0 -107.3,0 H 0 Z"
     fill="#63a3bf"
     id="path4" />
  <path
     d="m 0,142.06393 21.5,4.7 c 21.5,4.6 64.5,14 107.3,9 42.9,-5 85.5,-24.4 128.4,-24.5 42.8,-0.2 85.8,18.8 128.6,18.3 42.9,-0.5 85.5,-20.5 128.4,-25.3 42.8,-4.9 85.8,5.5 128.6,9.6 42.9,4.2 85.5,2.2 128.4,-0.6 42.8,-2.9 85.8,-6.5 107.3,-8.4 l 21.5,-1.8 v 221 h -21.5 c -21.5,0 -64.5,0 -107.3,0 -42.9,0 -85.5,0 -128.4,0 -42.8,0 -85.8,0 -128.6,0 -42.9,0 -85.5,0 -128.4,0 -42.8,0 -85.8,0 -128.6,0 -42.9,0 -85.5,0 -128.4,0 -42.8,0 -85.8,0 -107.3,0 H 0 Z"
     fill="#599cd2"
     id="path6" />
  <path
     d="m 0,148.06393 21.5,-3 c 21.5,-3 64.5,-9 107.3,-5.8 42.9,3.1 85.5,15.5 128.4,23.8 42.8,8.3 85.8,12.7 128.6,17.3 42.9,4.7 85.5,9.7 128.4,7.2 42.8,-2.5 85.8,-12.5 128.6,-23 42.9,-10.5 85.5,-21.5 128.4,-28.3 42.8,-6.9 85.8,-9.5 107.3,-10.9 l 21.5,-1.3 v 220 h -21.5 c -21.5,0 -64.5,0 -107.3,0 -42.9,0 -85.5,0 -128.4,0 -42.8,0 -85.8,0 -128.6,0 -42.9,0 -85.5,0 -128.4,0 -42.8,0 -85.8,0 -128.6,0 -42.9,0 -85.5,0 -128.4,0 -42.8,0 -85.8,0 -107.3,0 H 0 Z"
     fill="#7091df"
     id="path8" />
  <path
     d="m 0,210.06393 21.5,2 c 21.5,2 64.5,6 107.3,7.3 42.9,1.4 85.5,0 128.4,-9.8 42.8,-9.8 85.8,-28.2 128.6,-26.8 42.9,1.3 85.5,22.3 128.4,32.5 42.8,10.1 85.8,9.5 128.6,7.8 42.9,-1.7 85.5,-4.3 128.4,-9.8 42.8,-5.5 85.8,-13.9 107.3,-18 l 21.5,-4.2 v 153 h -21.5 c -21.5,0 -64.5,0 -107.3,0 -42.9,0 -85.5,0 -128.4,0 -42.8,0 -85.8,0 -128.6,0 -42.9,0 -85.5,0 -128.4,0 -42.8,0 -85.8,0 -128.6,0 -42.9,0 -85.5,0 -128.4,0 -42.8,0 -85.8,0 -107.3,0 H 0 Z"
     fill="#9c7edd"
     id="path10" />
  <path
     d="m 0,216.06393 21.5,-0.7 c 21.5,-0.6 64.5,-2 107.3,-3.6 42.9,-1.7 85.5,-3.7 128.4,-1 42.8,2.6 85.8,10 128.6,15.6 42.9,5.7 85.5,9.7 128.4,6.7 42.8,-3 85.8,-13 128.6,-15.3 42.9,-2.4 85.5,3 128.4,10 42.8,7 85.8,15.6 107.3,20 l 21.5,4.3 v 92 h -21.5 c -21.5,0 -64.5,0 -107.3,0 -42.9,0 -85.5,0 -128.4,0 -42.8,0 -85.8,0 -128.6,0 -42.9,0 -85.5,0 -128.4,0 -42.8,0 -85.8,0 -128.6,0 -42.9,0 -85.5,0 -128.4,0 -42.8,0 -85.8,0 -107.3,0 H 0 Z"
     fill="#ca62c7"
     id="path12" />
  <path
     d="m 0,274.06393 21.5,2 c 21.5,2 64.5,6 107.3,0.2 42.9,-5.9 85.5,-21.5 128.4,-20.9 42.8,0.7 85.8,17.7 128.6,24.5 42.9,6.9 85.5,3.5 128.4,-4.1 42.8,-7.7 85.8,-19.7 128.6,-26.9 42.9,-7.1 85.5,-9.5 128.4,-8.8 42.8,0.7 85.8,4.3 107.3,6.2 l 21.5,1.8 v 96 h -21.5 c -21.5,0 -64.5,0 -107.3,0 -42.9,0 -85.5,0 -128.4,0 -42.8,0 -85.8,0 -128.6,0 -42.9,0 -85.5,0 -128.4,0 -42.8,0 -85.8,0 -128.6,0 -42.9,0 -85.5,0 -128.4,0 -42.8,0 -85.8,0 -107.3,0 H 0 Z"
     fill="#ee3c9e"
     id="path14" />
  <path
     d="m 0,290.06393 21.5,0.5 c 21.5,0.5 64.5,1.5 107.3,3.5 42.9,2 85.5,5 128.4,3.5 42.8,-1.5 85.8,-7.5 128.6,-8.5 42.9,-1 85.5,3 128.4,8.3 42.8,5.4 85.8,12 128.6,15.5 42.9,3.5 85.5,3.9 128.4,-0.1 42.8,-4 85.8,-12.4 107.3,-16.5 l 21.5,-4.2 v 52 h -21.5 c -21.5,0 -64.5,0 -107.3,0 -42.9,0 -85.5,0 -128.4,0 -42.8,0 -85.8,0 -128.6,0 -42.9,0 -85.5,0 -128.4,0 -42.8,0 -85.8,0 -128.6,0 -42.9,0 -85.5,0 -128.4,0 -42.8,0 -85.8,0 -107.3,0 H 0 Z"
     fill="#ff0066"
     id="path16" />
</svg>
