<svg id="visual" viewBox="0 0 960 540" width="960" height="540" xmlns="http://www.w3.org/2000/svg" xmlns:xlink="http://www.w3.org/1999/xlink" version="1.1"><rect x="0" y="0" width="960" height="540" fill="#6963c0"></rect><path d="M0 322L22.8 328C45.7 334 91.3 346 137 340.8C182.7 335.7 228.3 313.3 274 309.8C319.7 306.3 365.3 321.7 411.2 333.7C457 345.7 503 354.3 548.8 345.5C594.7 336.7 640.3 310.3 686 297.7C731.7 285 777.3 286 823 283.7C868.7 281.3 914.3 275.7 937.2 272.8L960 270L960 541L937.2 541C914.3 541 868.7 541 823 541C777.3 541 731.7 541 686 541C640.3 541 594.7 541 548.8 541C503 541 457 541 411.2 541C365.3 541 319.7 541 274 541C228.3 541 182.7 541 137 541C91.3 541 45.7 541 22.8 541L0 541Z" fill="#63a3bf"></path><path d="M0 359L22.8 363.2C45.7 367.3 91.3 375.7 137 371.2C182.7 366.7 228.3 349.3 274 349.3C319.7 349.3 365.3 366.7 411.2 366.2C457 365.7 503 347.3 548.8 342.8C594.7 338.3 640.3 347.7 686 351.5C731.7 355.3 777.3 353.7 823 351C868.7 348.3 914.3 344.7 937.2 342.8L960 341L960 541L937.2 541C914.3 541 868.7 541 823 541C777.3 541 731.7 541 686 541C640.3 541 594.7 541 548.8 541C503 541 457 541 411.2 541C365.3 541 319.7 541 274 541C228.3 541 182.7 541 137 541C91.3 541 45.7 541 22.8 541L0 541Z" fill="#599cd2"></path><path d="M0 365L22.8 362.2C45.7 359.3 91.3 353.7 137 356.3C182.7 359 228.3 370 274 377.5C319.7 385 365.3 389 411.2 393.3C457 397.7 503 402.3 548.8 400.2C594.7 398 640.3 389 686 379.5C731.7 370 777.3 360 823 353.8C868.7 347.7 914.3 345.3 937.2 344.2L960 343L960 541L937.2 541C914.3 541 868.7 541 823 541C777.3 541 731.7 541 686 541C640.3 541 594.7 541 548.8 541C503 541 457 541 411.2 541C365.3 541 319.7 541 274 541C228.3 541 182.7 541 137 541C91.3 541 45.7 541 22.8 541L0 541Z" fill="#7091df"></path><path d="M0 420L22.8 421.8C45.7 423.7 91.3 427.3 137 428.5C182.7 429.7 228.3 428.3 274 419.5C319.7 410.7 365.3 394.3 411.2 395.7C457 397 503 416 548.8 425.2C594.7 434.3 640.3 433.7 686 432C731.7 430.3 777.3 427.7 823 422.8C868.7 418 914.3 411 937.2 407.5L960 404L960 541L937.2 541C914.3 541 868.7 541 823 541C777.3 541 731.7 541 686 541C640.3 541 594.7 541 548.8 541C503 541 457 541 411.2 541C365.3 541 319.7 541 274 541C228.3 541 182.7 541 137 541C91.3 541 45.7 541 22.8 541L0 541Z" fill="#9c7edd"></path><path d="M0 426L22.8 425.3C45.7 424.7 91.3 423.3 137 421.7C182.7 420 228.3 418 274 420.3C319.7 422.7 365.3 429.3 411.2 434.5C457 439.7 503 443.3 548.8 440.7C594.7 438 640.3 429 686 426.8C731.7 424.7 777.3 429.3 823 435.7C868.7 442 914.3 450 937.2 454L960 458L960 541L937.2 541C914.3 541 868.7 541 823 541C777.3 541 731.7 541 686 541C640.3 541 594.7 541 548.8 541C503 541 457 541 411.2 541C365.3 541 319.7 541 274 541C228.3 541 182.7 541 137 541C91.3 541 45.7 541 22.8 541L0 541Z" fill="#ca62c7"></path><path d="M0 478L22.8 479.8C45.7 481.7 91.3 485.3 137 480.2C182.7 475 228.3 461 274 461.7C319.7 462.3 365.3 477.7 411.2 483.7C457 489.7 503 486.3 548.8 479.3C594.7 472.3 640.3 461.7 686 455.3C731.7 449 777.3 447 823 447.5C868.7 448 914.3 451 937.2 452.5L960 454L960 541L937.2 541C914.3 541 868.7 541 823 541C777.3 541 731.7 541 686 541C640.3 541 594.7 541 548.8 541C503 541 457 541 411.2 541C365.3 541 319.7 541 274 541C228.3 541 182.7 541 137 541C91.3 541 45.7 541 22.8 541L0 541Z" fill="#ee3c9e"></path><path d="M0 492L22.8 492.5C45.7 493 91.3 494 137 495.8C182.7 497.7 228.3 500.3 274 499C319.7 497.7 365.3 492.3 411.2 491.5C457 490.7 503 494.3 548.8 499C594.7 503.7 640.3 509.3 686 512.3C731.7 515.3 777.3 515.7 823 512.2C868.7 508.7 914.3 501.3 937.2 497.7L960 494L960 541L937.2 541C914.3 541 868.7 541 823 541C777.3 541 731.7 541 686 541C640.3 541 594.7 541 548.8 541C503 541 457 541 411.2 541C365.3 541 319.7 541 274 541C228.3 541 182.7 541 137 541C91.3 541 45.7 541 22.8 541L0 541Z" fill="#ff0066"></path></svg>